<?xml version="1.0" standalone="no"?>
<!DOCTYPE svg PUBLIC "-//W3C//DTD SVG 20010904//EN"
 "http://www.w3.org/TR/2001/REC-SVG-20010904/DTD/svg10.dtd">
<svg version="1.0" xmlns="http://www.w3.org/2000/svg"
 width="1366.000000pt" height="768.000000pt" viewBox="0 0 1366.000000 768.000000"
 preserveAspectRatio="xMidYMid meet">
<metadata>
Created by potrace 1.15, written by Peter Selinger 2001-2017
</metadata>
<g transform="translate(0.000000,768.000000) scale(0.100000,-0.100000)"
fill="#000000" stroke="none">
<path d="M2 4723 c3 -2803 4 -2958 20 -2957 11 1 15 -3 11 -10 -4 -6 1 -5 10
3 14 11 20 11 32 1 10 -9 15 -9 15 -1 0 6 9 11 21 11 11 0 17 -4 14 -10 -3 -5
1 -10 10 -10 9 0 14 4 10 9 -3 6 27 9 73 8 78 -2 119 -17 105 -40 -3 -5 -1 -7
5 -3 6 3 64 -46 132 -111 l121 -118 2 -310 2 -310 -293 -3 -293 -2 2 -240 c1
-132 6 -240 10 -240 5 0 18 4 31 10 13 5 65 25 116 45 l94 36 66 -27 c37 -14
108 -41 157 -61 50 -19 120 -47 157 -63 62 -26 69 -27 78 -12 7 13 10 8 11
-23 1 -22 1 -43 0 -48 0 -4 3 -7 9 -7 5 0 7 13 3 30 -5 27 -3 29 13 23 17 -6
17 -5 5 10 -12 15 -11 17 3 17 9 0 16 -5 16 -11 0 -8 5 -8 15 1 12 10 15 9 15
-6 0 -16 2 -17 10 -4 9 13 10 13 11 0 0 -10 3 -8 9 5 6 13 9 15 9 5 1 -13 2
-13 11 0 8 13 10 12 10 -2 0 -10 7 -18 15 -18 9 0 12 6 8 16 -5 13 -2 15 15
10 17 -6 19 -3 15 14 -3 11 -1 20 5 20 5 0 12 -9 15 -20 3 -11 1 -20 -4 -20
-5 0 -9 -7 -9 -15 0 -18 27 -20 32 -3 3 7 7 5 11 -6 4 -10 3 -15 -3 -11 -6 3
-10 1 -10 -4 0 -6 4 -11 8 -11 5 0 10 -21 11 -47 1 -26 3 -49 6 -51 3 -3 5 53
5 124 l0 130 38 21 c20 11 73 39 117 63 44 23 133 72 197 107 l117 64 197 -26
c109 -14 201 -28 206 -31 4 -3 8 -40 8 -84 0 -63 3 -79 16 -84 9 -4 24 -1 33
6 14 12 14 11 2 -4 -11 -15 -11 -19 3 -24 14 -5 16 -29 18 -163 2 -131 3 -139
5 -48 2 59 8 107 13 107 5 0 10 19 12 42 3 47 30 62 36 21 3 -19 10 -23 43
-23 32 0 39 -3 39 -20 0 -29 70 -29 88 0 7 12 8 20 2 20 -5 0 -10 5 -10 10 0
7 7 7 20 0 11 -5 29 -14 40 -20 12 -6 21 -6 25 0 3 6 18 9 33 8 15 -1 48 -1
73 0 37 2 48 6 52 22 3 11 11 20 19 20 11 0 11 -2 0 -9 -12 -7 -12 -12 -1 -30
15 -22 29 -28 29 -11 0 6 -4 10 -10 10 -5 0 -10 5 -10 10 0 17 14 11 29 -11
10 -16 10 -23 1 -29 -8 -5 -7 -12 5 -24 9 -9 21 -13 26 -10 28 17 -2 -37 -44
-80 -26 -27 -46 -51 -43 -53 8 -8 116 109 110 119 -4 7 -2 8 5 4 21 -13 76 54
76 93 1 29 5 36 27 42 17 4 29 3 31 -4 2 -7 8 -8 13 -4 5 5 1 15 -10 23 -11 8
-15 14 -9 14 7 0 15 -5 18 -10 4 -6 11 -8 16 -4 5 3 6 10 3 16 -4 7 -2 8 5 4
16 -10 51 31 44 52 -4 14 -3 14 5 3 8 -11 16 -8 43 18 19 17 39 31 44 31 6 0
91 -81 190 -180 99 -99 183 -180 188 -180 4 0 -1 10 -12 22 -11 11 -19 24 -16
27 2 4 0 13 -6 21 -6 11 -9 12 -9 2 0 -7 -5 -10 -11 -7 -6 4 -8 14 -5 22 4 11
2 13 -9 10 -8 -4 -22 2 -31 11 -16 16 -16 17 -1 20 23 5 21 21 -5 49 -22 23
-12 33 11 11 10 -11 11 -9 5 6 -5 13 -4 17 4 12 7 -4 13 -19 13 -34 l1 -27 8
30 c4 17 8 22 9 13 1 -23 18 -23 24 0 3 10 6 5 7 -13 l2 -30 8 30 c8 30 8 30
9 4 0 -15 8 -29 16 -33 21 -8 19 -27 -2 -20 -11 4 -14 3 -7 -3 6 -4 14 -15 17
-23 4 -12 6 -11 6 3 1 20 17 23 24 5 2 -7 2 -3 0 9 -2 13 1 23 7 23 5 0 11 0
13 0 1 1 20 5 42 10 28 6 42 6 47 -3 4 -7 8 -7 8 -2 0 6 -5 17 -10 25 -7 11
-12 12 -18 3 -4 -6 -31 -14 -60 -16 -50 -5 -66 3 -40 19 9 6 5 10 -12 15 l-25
7 27 1 c15 1 34 -6 43 -15 14 -15 19 -15 53 0 l37 16 -42 -6 c-30 -4 -43 -2
-43 6 0 9 21 10 74 7 49 -4 78 -2 87 6 10 9 10 8 -1 -6 -8 -12 -21 -16 -34
-13 -31 8 -51 -7 -31 -24 11 -9 15 -9 15 -1 0 7 8 11 18 9 9 -1 22 1 28 5 7 4
11 0 10 -11 -1 -13 7 -17 36 -17 20 0 34 3 31 8 -2 4 1 7 7 7 7 0 7 7 -1 22
-6 13 -8 20 -4 16 4 -4 14 -1 22 7 28 28 56 9 57 -38 1 -19 5 -33 9 -30 5 3 7
15 6 26 -2 36 0 47 12 47 5 0 7 -4 4 -10 -3 -5 1 -10 9 -10 8 0 17 -10 19 -22
2 -13 3 -8 1 9 -3 39 8 43 24 8 15 -32 15 -38 2 -30 -5 3 -10 -3 -10 -14 0
-11 4 -23 10 -26 6 -4 7 1 4 12 -5 16 -4 16 8 2 10 -13 17 -14 31 -5 14 8 20
8 27 -4 5 -8 12 -11 17 -7 4 5 2 12 -5 16 -7 4 -12 12 -11 17 1 5 -1 17 -5 26
-6 14 -11 15 -27 5 -16 -10 -21 -9 -29 3 -17 27 -11 30 66 30 58 0 79 -4 92
-17 16 -16 16 -16 0 -10 -10 3 -18 2 -18 -3 0 -6 11 -10 24 -10 13 0 26 -4 28
-10 2 -6 8 -6 18 0 13 8 12 10 -2 10 -10 0 -18 5 -18 10 0 15 16 12 34 -6 10
-10 30 -15 54 -13 20 2 39 1 41 -2 9 -8 -32 -60 -44 -55 -6 2 -12 -2 -12 -10
0 -8 3 -14 6 -14 3 0 131 125 286 279 299 297 315 309 397 298 119 -16 195
-154 140 -254 -9 -18 -79 -95 -154 -171 -134 -136 -174 -184 -104 -125 19 15
35 34 35 42 1 7 7 11 15 8 9 -4 17 2 21 14 4 10 11 19 16 19 5 0 8 5 7 12 -3
14 22 18 39 5 7 -5 19 -1 33 13 15 15 25 19 32 12 12 -12 1 -65 -12 -57 -5 3
-11 1 -15 -5 -3 -5 0 -10 7 -10 17 0 48 36 48 55 0 8 5 15 10 15 6 0 10 -7 10
-16 0 -8 7 -22 15 -30 8 -8 19 -23 24 -32 5 -9 13 -13 18 -8 4 5 2 11 -4 13
-23 8 -14 31 22 53 19 12 35 26 35 31 0 5 18 9 40 9 22 0 40 -4 40 -10 0 -5
-17 -10 -38 -10 -24 0 -43 -7 -54 -19 -8 -10 -22 -21 -29 -23 -8 -3 -10 -9 -6
-14 4 -5 12 -2 17 6 7 12 11 12 27 -1 16 -12 17 -12 6 2 -17 21 -7 29 38 29
21 0 44 7 53 15 17 17 46 20 46 5 0 -5 5 -10 11 -10 7 0 9 10 7 25 -3 14 -1
26 3 26 41 6 44 3 50 -41 l6 -45 3 45 3 45 7 -50 c4 -28 8 -38 8 -22 2 25 5
27 47 27 29 0 45 -4 45 -12 0 -9 4 -8 10 2 9 13 11 13 21 0 8 -12 9 -9 4 10
-5 19 -4 22 4 10 10 -13 12 -13 22 0 8 12 9 11 4 -7 -3 -12 -1 -24 5 -28 6 -4
10 6 10 24 0 17 5 31 10 31 6 0 10 -13 10 -30 0 -16 5 -30 10 -30 6 0 10 14
10 30 0 41 17 38 22 -4 3 -31 1 -35 -27 -41 -16 -4 -25 -9 -19 -11 6 -3 23 0
38 6 21 8 26 15 22 35 -3 13 0 27 5 31 6 3 8 11 6 18 -3 6 3 12 13 12 12 0 16
-6 12 -19 -4 -15 0 -17 24 -13 16 2 35 5 42 5 7 1 10 6 7 11 -5 8 -11 8 -20 0
-10 -8 -15 -8 -20 0 -4 6 -4 14 -1 17 3 4 6 1 6 -7 0 -9 4 -9 13 -2 6 5 21 6
32 2 18 -6 18 -8 -5 -22 -14 -9 -40 -19 -57 -23 -18 -4 -33 -11 -33 -16 0 -12
-3 -13 100 27 l92 35 107 -42 c138 -54 140 -55 111 -30 -14 11 -34 21 -45 21
-37 1 -48 15 -21 30 14 7 24 16 22 19 -2 3 12 7 32 8 31 1 33 0 12 -6 -24 -7
-23 -8 11 -14 25 -5 39 -14 42 -27 3 -11 13 -20 22 -20 9 0 13 5 9 11 -16 26
63 33 91 8 11 -11 35 -12 35 -1 0 5 -23 14 -51 21 -27 7 -48 15 -46 18 3 2 22
0 43 -6 39 -11 58 -6 35 9 -8 4 -21 6 -30 3 -13 -4 -13 -3 -2 5 8 6 20 8 27 5
7 -2 14 1 17 9 2 7 3 5 2 -4 -2 -10 1 -18 6 -18 4 0 6 -7 3 -15 -4 -8 -1 -15
5 -15 6 0 11 5 11 10 0 6 5 10 11 10 6 0 8 -9 3 -22 -6 -20 -5 -21 10 -9 22
18 20 28 -5 36 -17 6 -19 9 -8 16 9 5 17 3 21 -6 5 -8 17 -11 30 -7 22 5 22 5
6 -12 -10 -10 -18 -21 -18 -25 0 -4 8 -7 18 -7 9 -1 24 -3 32 -6 8 -3 12 -3 8
-1 -15 8 -8 50 7 50 18 0 20 -14 3 -19 -9 -3 -9 -6 1 -12 8 -5 14 -1 18 13 7
26 23 28 23 2 0 -10 9 -21 20 -24 11 -3 20 -13 20 -24 0 -14 2 -15 9 -4 8 12
12 12 25 2 13 -11 16 -11 16 -1 0 8 3 10 8 6 4 -4 10 -56 13 -114 l6 -107 -1
127 c-1 90 3 129 11 132 6 3 10 13 9 23 -2 10 -1 13 1 6 2 -7 11 -9 20 -6 11
5 14 3 9 -6 -6 -9 -3 -9 13 1 12 7 21 16 21 20 0 5 9 8 20 8 25 0 25 9 3 26
-16 12 -15 13 10 4 15 -5 27 -6 27 -1 0 4 15 7 33 5 38 -3 106 24 87 36 -8 5
-7 9 5 13 9 4 13 3 10 -3 -11 -17 4 -11 101 41 l95 52 197 -27 c223 -30 215
-29 208 -18 -3 5 2 9 10 9 10 0 11 -4 4 -11 -5 -5 -10 -46 -10 -91 l0 -80 35
-19 c34 -19 35 -21 35 -79 0 -78 9 -70 12 11 2 46 6 61 15 57 7 -2 13 0 13 6
0 7 -10 9 -25 5 -19 -5 -23 -3 -19 9 4 8 1 15 -6 15 -6 0 -8 -5 -5 -10 10 -16
-12 -12 -29 6 -9 8 -16 16 -16 18 0 8 50 -1 62 -12 9 -7 22 -10 31 -6 10 3 17
-1 20 -13 4 -17 4 -17 12 1 5 12 3 21 -6 27 -10 6 -10 9 -2 9 7 0 18 -9 25
-20 7 -11 19 -20 27 -20 11 0 11 3 -3 13 -11 8 -15 19 -10 31 5 14 16 17 50
14 31 -2 45 1 49 11 4 11 8 12 18 2 9 -9 9 -14 -3 -21 -10 -7 -11 -10 -2 -10
6 0 21 9 32 20 11 11 20 17 20 13 0 -5 5 -1 10 7 8 12 10 10 11 -10 1 -20 3
-19 10 10 8 35 8 35 6 -7 -2 -33 1 -43 13 -43 12 -1 12 -3 -3 -14 -12 -9 -14
-16 -8 -21 6 -3 11 -1 11 4 0 6 6 11 13 11 8 0 14 7 14 14 0 8 -5 14 -11 13
-6 -1 -12 14 -13 33 -2 31 -1 32 7 10 4 -14 9 -18 9 -10 1 10 4 11 9 3 11 -18
170 -22 177 -4 4 11 8 12 18 2 9 -9 9 -14 -3 -21 -8 -5 -12 -11 -9 -15 3 -3
18 6 34 21 24 23 27 23 23 6 -4 -16 0 -22 19 -27 39 -9 63 3 64 33 l2 27 4
-25 c3 -14 9 -29 15 -35 8 -7 9 -6 4 3 -5 7 -4 25 0 40 l7 27 7 -30 7 -30 10
35 c10 33 11 33 12 8 1 -21 5 -26 18 -21 13 5 15 2 10 -16 -4 -19 -3 -20 9
-10 8 7 13 18 10 26 -3 7 5 22 17 33 14 13 23 17 26 9 2 -6 -3 -15 -10 -20
-12 -7 -12 -9 0 -9 8 0 -57 -72 -145 -161 -87 -88 -161 -163 -164 -167 -6 -9
93 86 264 254 l129 126 48 -48 c57 -57 66 -48 12 10 -21 22 -29 33 -17 23 22
-18 39 -23 30 -8 -8 12 27 9 36 -4 4 -5 4 -22 1 -37 l-6 -29 27 23 c26 23 26
23 6 40 -12 10 -16 19 -10 23 5 3 10 1 10 -5 0 -6 3 -9 8 -7 18 11 28 -19 17
-47 -9 -20 -14 -25 -18 -15 -3 8 -4 2 -2 -13 4 -28 -9 -39 -18 -15 -2 6 -7 9
-11 6 -3 -3 8 -18 24 -34 17 -16 30 -23 30 -17 0 7 -4 12 -10 12 -5 0 -10 5
-10 11 0 5 6 7 13 3 9 -5 9 -4 1 5 -9 10 -8 21 4 44 19 38 31 48 54 41 9 -2
19 0 23 6 3 5 12 10 18 10 7 0 4 -5 -5 -11 -25 -14 -22 -29 5 -29 18 0 19 2 7
10 -11 7 -6 10 20 10 26 0 31 -3 20 -10 -13 -8 -13 -10 2 -10 9 0 22 8 28 18
9 14 10 13 5 -8 -5 -19 -4 -22 4 -10 9 12 12 13 20 1 7 -11 9 -11 14 0 4 12 7
11 16 -1 7 -10 11 -11 11 -2 0 7 14 12 38 12 30 0 42 -5 51 -22 l11 -23 -6 23
c-3 12 -1 22 5 22 6 0 11 -7 11 -15 0 -8 5 -15 10 -15 6 0 10 7 10 15 0 8 5
15 11 15 6 0 8 -10 5 -22 -3 -13 -3 -17 0 -10 8 17 22 15 27 -5 3 -12 5 -8 6
9 0 14 7 29 13 31 8 4 7 6 -4 6 -9 1 -18 -5 -21 -11 -2 -7 -11 3 -21 22 -11
22 -12 28 -3 18 17 -22 28 -23 21 -3 -8 19 3 19 22 0 9 -8 21 -15 27 -14 9 0
8 2 0 6 -7 2 -13 9 -13 15 0 6 10 4 23 -5 12 -8 41 -16 64 -18 42 -4 42 -4 38
26 -4 20 -2 25 4 16 7 -10 13 -11 30 -2 12 7 26 9 31 6 6 -3 10 -4 10 0 0 3
-10 10 -23 15 -21 8 -21 9 6 9 22 1 28 -3 25 -17 -2 -10 -11 -16 -23 -14 -16
3 -17 2 -6 -12 16 -20 16 -20 35 0 9 8 20 12 26 9 15 -9 2 -25 -21 -25 -10 0
-19 -4 -19 -10 0 -13 37 -13 42 -1 2 5 19 11 38 14 19 2 27 2 18 0 -10 -2 -18
-9 -18 -14 0 -5 -9 -9 -20 -9 -11 0 -20 -4 -20 -10 0 -5 -9 -10 -20 -10 -11 0
-20 -4 -20 -10 0 -5 9 -10 21 -10 11 0 18 -4 15 -8 -3 -5 9 -6 27 -3 32 5 32
6 5 9 -29 3 -39 22 -13 22 9 0 35 9 57 20 48 23 48 23 48 12 0 -5 -11 -15 -25
-22 -14 -7 -25 -17 -25 -22 0 -5 9 -4 20 2 11 6 25 8 30 5 6 -4 10 8 11 27 0
27 2 29 8 13 l8 -20 5 20 c4 14 6 10 7 -12 1 -40 21 -44 21 -5 0 26 1 27 50
24 42 -3 50 -1 50 13 0 14 8 16 45 13 31 -2 45 1 45 9 0 7 5 13 10 13 6 0 10
-7 10 -15 0 -8 5 -15 10 -15 6 0 10 7 10 15 0 8 4 15 10 15 10 0 25 -65 21
-93 -1 -9 3 -17 9 -17 6 0 9 4 6 9 -3 5 1 14 10 21 8 7 13 18 11 24 -3 7 3 12
13 12 10 0 17 -3 14 -7 -2 -4 2 -10 8 -12 10 -4 10 -6 0 -6 -7 -1 -10 -6 -6
-12 4 -6 76 58 178 159 183 182 210 199 289 189 49 -7 117 -53 136 -92 8 -17
17 -52 19 -80 3 -27 10 -54 16 -58 7 -6 6 -7 -4 -4 -9 2 -19 -6 -25 -19 -5
-13 -58 -72 -117 -132 -60 -60 -108 -113 -108 -118 0 -4 16 9 36 30 31 32 37
36 52 24 15 -12 16 -11 4 4 -12 15 -10 21 12 43 15 14 31 23 38 19 6 -4 8 -3
5 3 -4 6 3 19 15 29 21 19 21 19 16 -3 -4 -13 -1 -26 4 -30 7 -3 8 -1 4 5 -4
7 -2 12 4 12 8 0 8 6 0 21 -7 11 -9 23 -6 27 3 3 6 1 6 -4 0 -5 9 5 20 21 22
33 25 30 10 -9 -8 -22 -7 -26 9 -26 19 0 21 21 6 65 -6 19 -6 19 8 2 11 -14
16 -15 20 -5 4 10 6 10 6 1 1 -9 24 -13 80 -13 61 0 80 -3 85 -15 3 -8 11 -15
18 -15 9 0 9 3 -2 9 -9 7 -2 9 24 7 21 -2 42 -10 47 -17 5 -8 9 -9 9 -4 0 6
14 12 30 13 24 2 30 -2 30 -17 0 -11 -6 -22 -12 -24 -8 -4 -7 -6 4 -6 9 -1 19
5 22 12 3 6 4 -1 1 -18 -4 -25 -3 -27 6 -12 6 10 8 30 5 45 l-6 27 19 -22 19
-22 12 29 c11 27 17 30 61 30 40 0 49 3 49 18 1 16 1 16 14 0 16 -22 36 -23
36 -3 0 9 10 15 28 16 l27 1 -25 7 -25 7 30 6 c17 4 39 10 49 14 13 5 17 4 13
-3 -4 -6 -1 -14 5 -16 7 -3 0 -4 -17 -3 -16 2 -21 1 -10 -2 15 -4 8 -8 -25
-17 l-45 -12 47 -8 c26 -4 53 -5 60 -2 7 3 -5 6 -27 7 l-40 2 31 9 c23 6 41 5
65 -6 19 -8 28 -14 21 -15 -10 0 -10 -3 2 -15 8 -8 21 -12 29 -9 8 3 17 -2 21
-11 10 -28 34 6 39 56 l4 44 1 -48 c2 -61 26 -60 30 1 2 29 8 42 18 42 10 0
14 -13 14 -45 0 -39 2 -44 14 -33 9 8 10 15 4 19 -6 4 -7 12 -3 19 6 9 9 9 16
-1 6 -10 9 -11 9 -1 0 18 18 15 23 -5 3 -13 5 -12 6 5 0 13 5 20 11 17 6 -4 8
-9 6 -13 -7 -11 88 -8 97 3 4 6 11 4 17 -5 9 -13 11 -13 21 0 8 11 12 12 16 2
2 -7 14 -17 26 -24 20 -10 21 -10 8 5 -12 15 -11 17 3 17 9 0 16 -4 16 -9 0
-13 39 -21 47 -9 3 6 1 8 -5 4 -6 -3 -13 -2 -16 3 -3 5 2 12 11 16 10 3 19 1
21 -4 5 -14 42 -14 42 -1 0 6 5 10 11 10 6 0 9 -6 6 -13 -9 -24 11 -41 47 -42
35 -2 49 11 42 37 -1 7 -1 10 1 6 10 -18 24 -6 18 15 -5 17 -4 19 4 7 10 -13
12 -13 22 0 9 13 10 12 5 -3 -3 -11 1 -25 10 -35 15 -15 16 -14 10 6 -5 16 -4
21 6 18 7 -2 50 -7 96 -10 83 -7 84 -7 78 16 -3 13 -3 17 0 11 3 -7 14 -13 23
-13 10 0 28 -12 42 -26 16 -17 19 -25 9 -23 -8 1 -26 -3 -40 -9 -14 -6 -18
-11 -10 -12 12 0 11 -3 -3 -11 -9 -5 -21 -8 -25 -5 -4 3 -13 -4 -20 -15 -12
-20 -3 -26 14 -10 5 5 38 25 74 44 36 19 110 58 164 87 l99 53 106 -15 c104
-15 128 -15 102 1 -10 7 -9 9 3 14 9 4 15 3 15 -1 -4 -24 7 -31 59 -38 31 -4
73 -7 92 -8 l35 -1 -3 -87 c-2 -49 0 -88 5 -88 5 0 7 16 5 35 -2 20 -1 60 2
89 6 42 12 55 27 59 10 3 17 1 13 -4 -3 -5 -1 -9 5 -9 5 0 12 -10 15 -22 2
-13 4 -6 2 14 -1 20 2 34 6 32 4 -3 8 -12 8 -20 0 -13 12 -18 33 -15 4 0 7 -3
7 -8 0 -5 9 -7 20 -4 11 3 20 0 20 -6 0 -6 5 -11 10 -11 6 0 10 8 8 17 -3 19
6 20 57 8 20 -4 26 -4 16 3 -11 8 -11 10 0 15 10 3 8 7 -6 12 -142 48 -230
146 -255 285 -18 100 5 197 65 276 23 30 25 41 25 148 l0 115 -57 3 c-44 2
-58 7 -58 18 0 12 17 16 78 18 l77 3 1 -113 c1 -62 3 -126 5 -142 2 -20 -5
-39 -22 -59 -99 -118 -98 -291 3 -406 123 -141 331 -144 459 -7 66 69 89 136
82 234 -5 71 -35 147 -70 179 -16 14 -18 34 -18 165 l0 148 76 0 c66 0 75 -2
72 -17 -2 -14 -15 -19 -56 -21 l-52 -3 0 -115 c0 -107 2 -118 25 -148 129
-170 79 -420 -106 -524 -27 -15 -49 -29 -49 -32 0 -3 11 -10 25 -16 18 -9 25
-9 29 0 2 6 5 3 5 -6 1 -25 21 -23 21 2 0 11 6 21 13 22 6 0 17 2 22 3 6 2
101 3 213 4 l202 1 1 28 0 27 16 -32 c9 -18 19 -33 23 -33 4 0 14 15 23 32
l17 33 -3 -42 c-1 -23 1 -39 5 -37 3 2 9 -4 11 -13 4 -15 5 -15 6 2 1 17 3 18
11 5 19 -29 30 11 30 110 0 72 -5 110 -21 155 -29 81 -29 198 0 279 l21 59 0
3224 0 3223 -6830 0 -6830 0 2 -2957z m13262 -2555 c-5 -7 0 -9 15 -5 24 6 98
-37 94 -54 -2 -5 1 -8 6 -6 14 3 161 -97 158 -108 -3 -6 -168 -11 -464 -13
-412 -2 -461 -1 -467 14 -5 13 3 15 52 14 31 -1 169 -1 305 -1 240 1 248 2
242 20 -7 23 10 23 45 -2 19 -13 46 -17 125 -17 92 1 98 2 80 16 -11 8 -19 23
-17 32 2 14 1 15 -7 2 -9 -12 -13 -11 -33 7 -13 11 -33 26 -46 32 -12 7 -20
17 -16 22 3 6 -2 9 -12 7 -11 -2 -18 2 -16 10 3 15 3 15 -37 1 -17 -6 -36 -20
-42 -30 -5 -11 -15 -17 -22 -13 -9 5 -8 3 1 -7 17 -18 15 -40 -3 -33 -20 8
-19 43 1 51 13 5 13 8 2 15 -9 6 -8 8 7 6 15 -2 19 2 17 17 -2 16 -1 17 7 5 9
-13 11 -12 12 5 1 11 1 24 0 28 -1 5 3 6 9 2 6 -3 7 -11 4 -17z m-1871 -230
c78 -76 145 -138 150 -138 4 0 7 14 7 31 0 61 58 121 138 141 33 8 48 6 87
-11 l48 -21 40 36 c21 20 54 51 72 70 23 24 39 32 51 27 15 -5 13 -10 -15 -35
-18 -16 -37 -26 -43 -22 -7 5 -8 2 -3 -5 5 -8 -8 -29 -35 -56 l-42 -43 18 -27
c42 -65 10 -181 -62 -222 -45 -26 -125 -30 -164 -9 -27 16 -330 315 -330 327
0 5 8 6 18 3 13 -5 14 -4 3 4 -8 6 -19 8 -26 6 -6 -3 -18 3 -26 12 -13 16 -12
17 6 11 19 -7 19 -7 1 8 -10 8 -22 12 -26 10 -4 -3 -16 5 -26 17 -11 12 -13
18 -6 14 7 -4 12 -1 12 9 0 9 -4 14 -9 10 -14 -8 -22 10 -14 30 5 15 8 13 21
-11 7 -16 78 -91 155 -166z m-2867 106 c-3 -7 -1 -16 5 -20 6 -3 10 -31 9 -63
-2 -76 -2 -81 10 -81 12 0 86 47 114 72 10 10 23 15 27 12 4 -2 11 2 16 9 14
23 72 58 84 51 7 -4 9 -3 6 3 -4 6 0 16 8 23 12 10 13 8 10 -10 -2 -13 -6 -24
-7 -24 -2 -1 -16 -12 -31 -24 -16 -12 -35 -18 -44 -15 -10 4 -14 2 -9 -5 9
-14 -59 -66 -75 -56 -8 4 -9 3 -5 -4 4 -7 -9 -22 -31 -37 -21 -13 -48 -32 -60
-41 -12 -9 -27 -13 -32 -10 -6 4 -10 56 -9 126 0 70 5 117 10 114 5 -3 7 -12
4 -20z m1610 12 c17 -18 18 -26 2 -22 -7 1 -10 1 -5 -1 4 -3 5 -9 2 -14 -4 -5
0 -6 8 -3 8 3 19 -1 25 -9 9 -11 7 -20 -12 -42 -13 -15 -28 -25 -33 -22 -6 4
-8 -4 -5 -18 3 -19 13 -26 46 -32 l41 -9 3 -62 3 -61 -46 -12 c-25 -6 -45 -16
-45 -22 0 -6 13 -25 30 -42 l29 -30 -30 -54 c-28 -48 -33 -52 -57 -45 -15 4
-36 7 -47 8 -21 1 -21 -1 -13 -68 3 -26 -3 -33 -45 -59 l-48 -30 -34 33 c-39
38 -48 34 -62 -20 l-9 -35 -64 0 -64 0 -9 35 c-13 54 -23 58 -61 21 l-34 -33
-52 28 c-48 27 -51 31 -46 59 14 77 15 77 -59 61 -28 -7 -32 -4 -58 46 l-28
53 31 28 c36 32 34 54 -7 63 -15 3 -34 7 -40 10 -9 2 -13 24 -13 64 l0 60 45
11 c49 12 60 37 27 61 -10 7 -22 19 -26 26 -10 16 21 65 35 56 6 -3 4 -10 -6
-18 -14 -10 -12 -15 18 -44 29 -29 33 -38 28 -65 -5 -25 -14 -33 -41 -41 -42
-12 -46 -17 -44 -53 1 -23 6 -29 33 -34 39 -8 46 -15 55 -51 5 -22 1 -32 -19
-50 -29 -25 -31 -36 -10 -65 13 -19 19 -20 51 -11 32 8 39 7 61 -14 24 -22 26
-39 9 -79 -5 -11 1 -22 20 -33 25 -17 27 -17 54 9 23 22 34 26 58 20 36 -7 49
-21 54 -55 2 -20 9 -26 36 -28 29 -3 33 0 38 27 8 36 21 49 61 57 24 5 34 1
50 -20 24 -30 26 -31 57 -11 22 14 23 19 13 50 -9 31 -8 38 14 61 23 25 31 26
85 9 17 -5 23 0 34 25 12 29 11 33 -14 56 -20 20 -25 31 -20 52 8 33 30 52 61
52 20 0 23 5 23 39 0 36 -2 39 -35 45 -19 4 -36 10 -38 14 -9 14 -19 77 -12
70 4 -4 18 5 31 20 20 22 23 23 18 7 -4 -15 -3 -16 4 -6 7 9 3 24 -14 48 -29
44 -21 71 12 39z m-513 -62 c-21 -18 -42 -33 -46 -34 -5 0 -5 -4 -2 -10 3 -5
2 -10 -3 -10 -15 0 -35 -115 -27 -157 24 -129 142 -210 269 -183 133 27 214
162 172 285 -8 26 -13 52 -10 56 3 5 0 8 -8 7 -7 -2 -14 7 -16 20 -2 12 1 22
7 22 13 0 41 -41 35 -52 -3 -4 -1 -8 4 -8 15 0 32 -58 32 -110 0 -102 -59
-194 -155 -240 -39 -19 -58 -22 -120 -18 -113 7 -196 67 -231 167 -24 68 -12
201 18 201 5 0 6 5 2 12 -5 7 -3 8 6 3 10 -6 12 -4 7 9 -4 10 -1 19 8 22 8 4
15 12 15 20 0 15 59 44 73 37 5 -3 -9 -20 -30 -39z m-3018 7 c7 -12 -74 -93
-85 -86 -5 3 -12 0 -16 -6 -5 -8 -3 -9 5 -5 8 5 14 0 18 -13 3 -11 10 -18 16
-14 6 4 8 0 4 -10 -3 -9 -1 -17 5 -19 15 -5 14 -99 -3 -129 -8 -15 -29 -39
-48 -55 -42 -35 -131 -45 -177 -21 -40 21 -307 292 -310 314 -3 17 -2 17 10 1
7 -10 22 -18 32 -19 18 0 18 -1 -1 -9 -20 -9 -7 -15 23 -11 6 1 12 -6 12 -15
0 -10 3 -14 7 -11 8 8 53 -32 53 -47 1 -6 19 -23 40 -38 l40 -28 0 29 c0 15 7
42 15 59 16 31 69 82 85 82 5 0 15 3 24 6 30 11 17 -23 -13 -35 -15 -7 -44
-28 -62 -48 -19 -20 -29 -33 -22 -29 8 4 10 -5 6 -33 -7 -53 18 -102 66 -129
45 -26 76 -27 124 -7 73 30 100 129 53 198 -13 19 -21 38 -18 42 4 3 -1 3 -11
-1 -10 -3 -17 -1 -17 5 0 6 -9 11 -19 11 -11 0 -23 5 -26 10 -5 8 -11 8 -19 1
-9 -8 -13 -7 -13 2 0 16 49 15 90 -2 36 -14 47 -14 47 0 0 6 7 9 15 6 8 -4 17
-1 21 5 4 7 3 8 -4 4 -7 -4 -12 -3 -12 3 0 9 34 33 50 35 3 1 4 4 3 9 -4 10 5
9 12 -2z m-2379 -46 c-15 -23 -14 -29 5 -27 4 1 2 -9 -4 -23 -7 -13 -14 -22
-17 -20 -3 2 -3 -27 1 -65 8 -86 43 -151 105 -190 81 -51 181 -49 254 5 40 29
90 100 90 126 0 10 7 25 16 33 10 10 11 16 4 16 -7 0 -10 8 -7 19 2 10 1 25
-4 33 -5 8 -11 35 -14 59 -5 40 -4 42 9 24 19 -27 36 -92 36 -136 0 -94 -74
-200 -165 -234 -55 -22 -154 -17 -209 10 -51 25 -104 78 -127 129 -26 57 -26
159 0 185 11 11 15 23 10 28 -5 5 -2 18 7 31 21 30 30 28 10 -3z m603 -65 c48
0 67 -29 39 -59 -10 -11 -10 -13 0 -7 6 4 12 2 12 -3 0 -6 -6 -11 -12 -12 -10
0 -10 -2 0 -6 18 -7 15 -41 -6 -47 -9 -3 -28 -4 -41 -1 -13 2 -21 2 -17 -2 3
-3 1 -12 -6 -20 -9 -11 -4 -21 20 -46 l31 -32 -27 -50 c-23 -42 -32 -50 -52
-47 -83 10 -78 14 -68 -67 2 -20 -6 -30 -47 -54 l-49 -29 -29 32 c-32 36 -54
34 -63 -7 -12 -55 -10 -54 -76 -51 l-61 3 -11 39 c-6 22 -16 41 -23 43 -6 2
-24 -10 -40 -27 l-30 -32 -51 32 c-57 35 -57 34 -41 79 16 44 3 56 -47 42 -35
-10 -41 -9 -56 12 -10 12 -24 36 -32 52 -14 29 -14 31 16 62 36 37 31 49 -22
63 -40 11 -40 11 -40 62 0 28 3 48 7 45 3 -4 12 -2 20 5 11 9 12 6 3 -16 -14
-37 0 -58 46 -71 29 -8 39 -17 46 -40 6 -24 3 -34 -19 -57 -24 -25 -25 -30
-13 -58 14 -34 15 -34 59 -19 29 10 35 9 57 -12 17 -16 23 -30 20 -44 -3 -11
-8 -29 -12 -41 -4 -17 1 -24 27 -34 30 -13 33 -12 55 13 19 22 29 26 51 21 41
-10 53 -23 53 -55 0 -27 3 -29 40 -29 37 0 40 2 40 29 0 32 13 46 52 56 22 6
32 2 51 -21 23 -26 26 -27 56 -14 26 10 31 17 27 34 -4 12 -9 30 -12 41 -3 14
3 28 20 44 22 21 28 22 57 12 44 -15 45 -15 59 20 12 29 11 32 -14 52 -23 19
-26 27 -20 55 7 36 14 43 57 51 25 5 31 12 32 36 2 36 -11 56 -31 48 -9 -3
-14 0 -12 7 2 7 -3 15 -11 18 -10 3 -11 0 -5 -9 7 -12 5 -12 -9 0 -9 7 -17 20
-17 28 0 13 3 13 25 -1 13 -9 33 -16 44 -16z m-4003 -58 c-2 -4 7 -17 20 -30
13 -12 24 -19 24 -15 0 4 5 2 12 -5 19 -19 26 -14 20 13 -3 18 0 25 12 25 9 0
16 -4 16 -10 0 -5 -6 -10 -12 -10 -9 0 -8 -3 2 -10 12 -7 11 -12 -5 -30 -15
-17 -16 -23 -5 -33 10 -10 12 -9 7 5 -3 10 0 19 9 22 10 4 14 1 12 -6 -6 -18
58 -76 93 -83 16 -4 47 -4 69 0 44 7 81 45 101 103 14 40 29 41 29 3 0 -36
-36 -89 -79 -118 -37 -25 -100 -30 -148 -12 -35 13 -124 99 -116 112 3 6 2 7
-4 4 -13 -8 -70 53 -70 75 0 10 4 15 9 12 5 -3 7 -8 4 -12z m10270 -195 l144
-143 0 -301 c0 -202 -4 -304 -11 -308 -5 -4 -133 -7 -282 -7 -150 0 -305 -4
-345 -7 -40 -4 -77 -4 -82 -1 -7 4 -9 164 -8 451 l3 444 70 6 c39 3 137 6 219
7 l148 2 144 -143z m-5322 -9 l144 -143 -2 -305 -1 -305 -367 -3 -368 -2 0
443 c0 244 3 447 7 450 3 4 105 7 225 7 l219 0 143 -142z m6571 15 c49 -49
-43 -182 -324 -469 -98 -100 -163 -158 -190 -170 -28 -12 -41 -24 -41 -37 0
-58 -104 -128 -188 -129 -51 0 -60 6 -45 30 6 10 22 57 37 105 27 90 54 131
80 121 9 -3 21 10 35 39 24 50 286 312 409 410 72 58 172 117 197 117 8 0 21
-7 30 -17z m-10657 -9 c12 -8 22 -22 22 -31 0 -15 -27 -79 -42 -98 -104 -136
-215 -261 -361 -405 -75 -75 -147 -126 -159 -114 -3 2 -8 -13 -12 -35 -10 -64
-100 -121 -192 -121 -40 0 -45 2 -39 18 4 9 20 56 35 103 37 114 46 129 75
129 18 0 28 8 38 33 19 44 132 163 296 310 146 132 219 188 272 212 43 18 40
18 67 -1z m5330 0 c12 -8 22 -22 22 -31 0 -28 -66 -135 -135 -218 -107 -129
-351 -370 -395 -390 -29 -13 -40 -24 -40 -40 0 -57 -104 -125 -192 -125 -52 0
-53 1 -37 32 6 11 20 52 30 90 28 98 44 128 73 128 19 0 29 10 45 43 18 38
207 233 338 350 98 86 230 175 263 177 3 0 16 -7 28 -16z m-5030 -283 c2 -131
1 -146 -17 -165 -49 -53 -66 -107 -66 -206 0 -85 3 -100 27 -140 112 -192 352
-225 505 -71 106 106 111 309 12 417 -18 19 -19 34 -17 165 l3 144 70 0 c56 0
70 -3 70 -15 0 -11 -12 -16 -40 -17 -22 -1 -47 -2 -55 -2 -12 -1 -15 -20 -14
-115 1 -108 3 -116 28 -149 62 -81 87 -200 61 -298 -59 -234 -305 -340 -519
-226 -69 37 -138 117 -161 188 -21 61 -21 182 -1 237 8 23 29 62 46 87 29 43
31 49 33 160 l3 115 -41 1 c-22 1 -44 1 -49 0 -13 -3 -36 20 -30 31 3 5 38 8
77 6 l72 -3 3 -144z m5332 0 c0 -126 -2 -151 -17 -162 -9 -8 -29 -41 -45 -74
-53 -112 -34 -243 48 -334 66 -73 139 -106 234 -105 93 0 160 27 218 87 63 65
86 119 90 208 4 67 0 85 -23 137 -15 34 -36 69 -46 78 -17 15 -19 33 -19 166
l0 149 73 -3 c56 -2 72 -6 72 -18 0 -11 -14 -16 -52 -18 l-53 -3 0 -115 c0
-111 1 -115 29 -155 45 -61 66 -132 65 -219 -1 -97 -41 -187 -111 -250 -75
-67 -141 -92 -244 -93 -75 -1 -93 3 -143 27 -206 101 -276 356 -145 535 28 40
29 44 29 156 l0 115 -54 0 c-54 0 -73 10 -61 30 3 6 40 10 81 10 l74 0 0 -149z
m1567 88 c137 -47 249 -172 283 -317 18 -76 9 -194 -20 -262 -13 -30 -42 -80
-65 -110 -23 -30 -40 -60 -38 -67 2 -6 -1 -14 -6 -18 -7 -4 -8 1 -4 12 7 17 6
17 -20 0 -116 -76 -178 -97 -284 -97 -162 0 -325 106 -395 257 -28 58 -33 82
-36 165 -6 144 31 241 130 338 118 116 295 155 455 99z m-5296 -16 c344 -163
345 -632 1 -800 -74 -37 -81 -38 -182 -38 -138 1 -209 28 -302 118 -91 88
-129 169 -136 292 -11 212 99 375 303 448 39 14 72 17 151 14 87 -3 109 -8
165 -34z m9292 -454 c48 -22 62 -99 27 -137 -65 -69 -174 -9 -149 82 15 54 70
79 122 55z m-10625 -35 c47 -53 9 -138 -61 -138 -41 0 -84 33 -89 68 -14 87
91 137 150 70z m5330 0 c63 -72 -25 -176 -108 -127 -56 32 -56 118 -1 148 35
20 81 11 109 -21z"/>
<path d="M11650 1924 c-45 -29 -65 -65 -65 -121 0 -41 5 -57 25 -78 53 -57 98
-67 167 -36 128 59 79 252 -64 251 -21 0 -49 -8 -63 -16z"/>
<path d="M10603 1743 l-53 -4 0 -412 0 -413 318 4 c174 2 318 5 318 6 1 0 4
123 8 273 l6 272 -138 3 -137 3 3 113 c2 62 1 124 -2 138 l-6 24 -133 -2 c-72
-1 -156 -3 -184 -5z m445 -731 c-3 -15 -23 -17 -187 -20 -139 -2 -186 1 -192
10 -18 29 11 33 196 30 169 -3 186 -4 183 -20z"/>
<path d="M10960 1610 l0 -100 101 0 101 0 -29 33 c-52 60 -159 167 -166 167
-4 0 -7 -45 -7 -100z"/>
<path d="M5219 1625 c-1 -63 -1 -122 -1 -130 0 -8 0 -143 1 -300 l1 -285 325
0 325 0 0 108 c0 59 3 182 7 275 l6 167 -129 0 c-71 0 -134 4 -139 8 -6 4 -10
61 -10 137 l0 130 -192 3 -193 2 -1 -115z"/>
<path d="M5640 1600 l0 -100 108 0 107 0 -100 100 c-55 55 -103 100 -107 100
-5 0 -8 -45 -8 -100z"/>
<path d="M12175 1537 c-44 -35 -134 -115 -198 -178 -108 -104 -117 -115 -99
-126 17 -10 39 9 208 178 104 104 184 189 179 189 -6 0 -47 -28 -90 -63z"/>
<path d="M12112 1384 c-100 -102 -182 -189 -182 -192 0 -4 4 -14 10 -22 7 -11
30 8 108 91 155 163 261 293 250 304 -2 3 -86 -79 -186 -181z"/>
<path d="M11781 1163 c-23 -27 -41 -55 -41 -64 0 -20 41 -59 62 -59 18 0 108
77 108 92 0 13 -65 78 -78 78 -6 0 -29 -21 -51 -47z"/>
<path d="M1535 1539 c-44 -34 -118 -99 -165 -144 -47 -45 -103 -98 -125 -118
-38 -34 -39 -37 -22 -54 16 -17 26 -8 215 180 109 108 193 197 188 197 -6 0
-47 -28 -91 -61z"/>
<path d="M1462 1377 c-182 -182 -192 -194 -177 -212 16 -22 5 -32 202 177 80
86 179 215 171 223 -2 2 -90 -82 -196 -188z"/>
<path d="M1131 1153 c-47 -56 -50 -71 -17 -102 32 -30 57 -23 115 30 l44 40
-38 39 c-22 22 -45 40 -51 40 -7 0 -31 -21 -53 -47z"/>
<path d="M6874 1545 c-66 -51 -291 -258 -317 -292 -16 -21 -16 -23 1 -32 16
-8 47 19 208 180 104 104 184 189 178 189 -7 0 -38 -20 -70 -45z"/>
<path d="M6787 1372 c-169 -171 -186 -190 -173 -207 12 -17 21 -9 118 91 127
133 224 244 252 292 23 39 -30 -8 -197 -176z"/>
<path d="M6461 1153 c-23 -27 -41 -55 -41 -64 0 -20 41 -59 62 -59 19 0 108
77 108 94 0 15 -62 76 -77 76 -6 0 -30 -21 -52 -47z"/>
<path d="M8660 1419 c-259 -51 -399 -355 -269 -584 35 -63 77 -108 91 -99 7 4
8 2 4 -4 -9 -15 56 -57 128 -82 192 -66 399 26 489 218 28 60 31 77 31 157 0
120 -25 184 -104 269 -103 109 -230 152 -370 125z m253 -81 c67 -36 116 -89
155 -168 24 -48 27 -66 27 -150 -1 -86 -4 -100 -32 -155 -60 -116 -176 -194
-302 -203 -63 -4 -106 6 -196 43 -18 8 -19 7 -5 -10 14 -17 14 -17 -8 -4 -12
8 -18 15 -13 17 5 2 -19 31 -54 65 -84 83 -109 147 -103 267 3 73 9 94 38 148
97 182 311 247 493 150z"/>
<path d="M8625 1323 c-22 -9 -53 -25 -68 -36 l-28 -19 20 -22 c23 -24 28 -56
9 -56 -6 0 -22 10 -36 23 -23 22 -24 22 -39 2 -21 -27 -49 -93 -58 -132 -6
-31 -5 -32 32 -35 30 -2 38 -7 38 -23 0 -16 -8 -21 -38 -23 -37 -3 -38 -4 -32
-35 7 -36 54 -135 68 -144 5 -3 19 4 31 16 44 41 73 15 31 -29 l-26 -28 34
-21 c40 -24 111 -51 138 -51 13 0 17 6 13 23 -5 28 18 63 34 53 7 -4 12 -23
12 -42 0 -19 5 -34 12 -34 27 0 119 35 144 55 l27 22 -22 22 c-23 23 -22 51 2
51 8 0 22 -9 32 -20 10 -11 21 -20 25 -20 12 0 59 94 68 138 l10 42 -34 0
c-23 0 -37 6 -41 16 -7 19 13 34 48 34 25 0 26 2 19 38 -8 43 -32 98 -54 126
-16 19 -16 19 -39 -2 -45 -42 -75 -17 -33 27 22 23 24 30 13 39 -26 22 -123
62 -149 62 -25 0 -28 -3 -28 -35 0 -28 -4 -35 -20 -35 -16 0 -20 7 -20 35 0
32 -3 35 -27 34 -16 0 -46 -7 -68 -16z m221 -204 c3 -6 -10 -27 -30 -48 -20
-20 -36 -41 -36 -47 0 -5 29 -38 64 -73 59 -59 74 -91 42 -91 -6 0 -40 29 -76
65 -35 35 -73 65 -84 67 -30 4 -30 62 0 66 12 2 36 19 54 38 35 35 54 42 66
23z"/>
<path d="M3317 1419 c-86 -20 -173 -78 -231 -157 -182 -248 -19 -606 286 -629
80 -6 152 2 143 17 -3 4 4 6 14 3 28 -7 120 48 169 101 113 123 142 295 72
440 -49 103 -134 177 -255 221 -29 11 -154 13 -198 4z m249 -72 c71 -36 141
-107 172 -175 22 -48 26 -72 26 -147 1 -77 -3 -98 -26 -147 -130 -280 -514
-287 -654 -11 -26 53 -29 67 -29 158 0 90 3 105 27 152 37 69 81 118 135 150
78 45 112 53 208 50 73 -3 99 -8 141 -30z"/>
<path d="M3327 1334 c-27 -7 -67 -24 -89 -39 l-40 -27 25 -26 c41 -44 15 -72
-29 -31 -12 12 -27 18 -33 14 -18 -11 -60 -100 -67 -143 -6 -38 -5 -39 22 -37
37 2 54 -4 54 -20 0 -15 -22 -25 -57 -25 -22 0 -24 -3 -18 -32 7 -37 54 -136
68 -145 5 -3 19 4 31 16 44 41 73 15 31 -29 l-27 -28 45 -26 c47 -28 99 -46
129 -46 14 0 18 8 18 33 0 38 6 48 26 40 8 -3 14 -19 14 -39 0 -27 4 -34 19
-34 28 0 102 28 138 53 l32 22 -26 27 c-25 26 -24 48 1 48 7 0 21 -9 31 -20
10 -11 22 -20 26 -20 10 0 65 115 73 153 6 24 3 27 -18 27 -35 0 -56 10 -56
26 0 14 4 15 53 18 19 1 22 6 19 36 -4 38 -31 103 -56 134 -16 19 -16 19 -39
-2 -44 -42 -75 -17 -33 27 l27 28 -38 26 c-21 14 -63 33 -93 40 l-55 14 -5
-36 c-3 -24 -11 -37 -22 -39 -14 -3 -18 4 -18 32 0 19 -3 37 -7 39 -5 2 -30
-2 -56 -9z m189 -215 c3 -6 -10 -27 -30 -48 -20 -20 -36 -41 -36 -47 0 -5 27
-36 60 -69 57 -56 76 -95 47 -95 -7 0 -42 29 -77 65 -35 36 -72 65 -82 65 -19
0 -31 29 -22 54 3 9 14 16 23 16 9 0 32 16 51 35 35 36 54 43 66 24z"/>
<path d="M0 1325 l0 -415 271 2 272 3 5 273 4 272 -130 0 c-91 0 -133 4 -138
12 -4 7 -7 70 -6 140 l1 128 -139 0 -140 0 0 -415z"/>
<path d="M320 1703 c-12 -3 -14 -21 -12 -103 l3 -99 101 -3 c55 -2 102 0 103
3 2 3 -34 43 -81 90 -46 46 -84 88 -84 94 0 5 5 3 10 -5 6 -9 10 -10 10 -3 0
15 -30 31 -50 26z"/>
<path d="M4583 819 c-18 -5 -33 -13 -33 -17 0 -4 41 -48 90 -97 99 -99 110
-100 110 -16 0 92 -80 155 -167 130z"/>
<path d="M9890 810 c-12 -8 3 -27 77 -102 51 -51 96 -89 100 -84 4 4 8 35 8
68 0 56 -2 62 -37 94 -32 29 -45 34 -85 34 -27 0 -55 -5 -63 -10z"/>
<path d="M9655 582 c-99 -101 -171 -180 -160 -176 20 7 20 7 1 -15 -13 -14
-22 -18 -27 -10 -4 7 -9 8 -13 1 -3 -5 0 -12 8 -15 17 -7 230 198 221 212 -3
6 0 8 8 5 17 -6 41 21 32 35 -3 6 4 21 16 33 l23 23 -17 -27 c-25 -39 -7 -35
31 8 31 35 61 42 69 17 3 -7 -28 -44 -67 -82 -43 -41 -69 -74 -65 -81 4 -7 1
-10 -9 -8 -19 4 -113 -95 -107 -113 2 -6 -1 -9 -7 -6 -10 7 -39 -21 -34 -32 1
-3 -3 -6 -10 -6 -6 0 -12 -8 -14 -19 -2 -14 7 -9 37 20 21 21 39 44 39 51 0 7
5 12 12 10 7 -1 12 4 13 11 0 6 4 12 9 11 15 -2 95 84 89 95 -3 6 -2 8 2 3 5
-4 25 9 45 28 25 24 42 34 53 29 9 -3 17 -11 17 -16 0 -6 8 -8 18 -4 15 5 14
4 -2 -7 -45 -30 -65 -49 -63 -60 1 -7 -3 -11 -9 -10 -17 3 -68 -54 -55 -61 6
-4 11 0 11 9 0 10 5 13 12 9 6 -4 8 -3 4 4 -3 6 0 12 8 14 20 4 138 119 131
126 -3 4 -10 0 -15 -8 -7 -11 -10 -12 -10 -2 0 7 -5 10 -11 7 -5 -4 -19 1 -30
11 -18 16 -18 18 -3 36 15 16 18 16 28 2 10 -13 16 -13 39 -3 14 6 24 16 20
22 -3 6 -1 7 5 3 9 -5 8 -15 -3 -37 -14 -26 -14 -29 -1 -29 9 0 20 -9 26 -20
6 -11 16 -17 22 -14 7 4 8 3 4 -5 -4 -6 -12 -8 -18 -5 -13 8 -121 -103 -112
-117 3 -5 0 -16 -6 -24 -14 -17 -35 -21 -25 -5 3 6 2 10 -2 10 -5 0 -14 -10
-22 -22 -13 -21 -13 -22 2 -9 10 7 17 9 17 3 0 -5 -7 -15 -16 -23 -12 -10 -17
-10 -23 0 -6 10 -10 9 -14 -4 -4 -9 -3 -13 3 -10 6 3 10 1 10 -4 0 -6 -4 -11
-10 -11 -5 0 -10 -6 -10 -12 0 -7 56 43 124 111 69 69 123 128 120 133 -3 5 0
7 7 6 33 -8 10 26 -73 107 l-93 90 -180 -183z"/>
<path d="M4413 669 c-49 -50 -86 -96 -85 -102 2 -7 0 -9 -4 -4 -10 10 -95 -74
-87 -86 3 -6 2 -7 -4 -4 -5 3 -51 -35 -101 -86 -90 -91 -92 -92 -69 -106 20
-13 21 -13 9 1 -10 13 -10 17 3 22 8 3 15 12 15 21 0 19 16 20 24 0 3 -8 10
-15 17 -15 6 0 9 7 6 14 -3 8 5 25 19 38 32 30 81 94 64 83 -9 -5 -11 -4 -6 4
4 6 12 9 17 5 6 -3 19 2 30 12 22 20 26 42 4 24 -10 -9 -15 -9 -15 -1 0 11 13
15 39 11 8 -1 12 4 8 14 -4 9 -1 13 6 10 7 -2 50 34 97 81 46 47 90 85 97 85
37 0 -2 -51 -151 -202 -99 -100 -159 -169 -151 -171 14 -6 109 85 100 96 -3 4
-2 5 2 2 4 -3 48 36 99 86 64 64 97 90 108 86 9 -4 16 -12 16 -19 0 -7 -72
-85 -160 -173 -88 -88 -160 -164 -160 -169 0 -5 9 3 21 18 11 14 24 24 28 22
11 -7 173 159 164 169 -4 4 -3 5 4 1 13 -7 120 99 116 115 -2 5 3 8 10 6 6 -1
11 5 9 13 -2 8 0 12 4 8 4 -4 13 -3 20 3 17 14 44 5 44 -14 0 -8 -66 -80 -146
-161 -110 -110 -144 -150 -135 -159 8 -8 37 14 114 91 56 56 134 133 173 172
l70 69 -42 42 c-23 23 -45 41 -48 40 -3 -1 -6 2 -5 5 2 8 -83 94 -93 94 -4 0
-47 -41 -95 -91z"/>
<path d="M1415 601 c-6 -4 -41 -25 -80 -46 -38 -21 -123 -67 -187 -102 l-118
-65 0 -196 c0 -107 2 -193 5 -190 3 3 6 55 6 116 0 94 3 113 17 123 16 10 16
10 0 5 -12 -3 -18 0 -18 9 0 8 8 15 18 15 14 0 15 2 2 10 -8 5 -11 12 -7 16 8
8 47 -29 47 -46 0 -5 5 -10 10 -10 6 0 8 11 4 25 -4 18 -2 25 8 25 20 0 68 24
68 34 0 5 7 3 15 -4 8 -7 15 -10 15 -6 0 3 12 1 26 -5 20 -7 32 -6 48 4 11 8
38 17 59 21 22 4 37 13 37 21 0 9 6 12 16 8 10 -4 12 -9 5 -16 -5 -5 -7 -16
-4 -23 3 -8 -1 -14 -11 -14 -9 0 -16 -8 -15 -17 0 -11 3 -13 6 -5 2 6 11 12
18 12 10 0 13 -31 14 -137 1 -75 4 -139 6 -142 3 -2 5 129 5 292 0 164 -1 297
-3 297 -2 0 -7 -4 -12 -9z m-55 -149 c0 -18 -12 -27 -89 -69 -25 -14 -74 -41
-109 -60 -35 -19 -69 -32 -76 -30 -20 8 -27 47 -10 47 8 0 32 9 54 20 35 18
37 21 27 44 -9 19 -15 22 -29 15 -10 -5 -18 -15 -18 -21 0 -6 -3 -8 -7 -5 -8
9 27 47 44 47 7 0 13 -9 13 -19 0 -35 19 -33 93 8 80 44 107 50 107 23z"/>
<path d="M1480 461 c0 -104 3 -151 11 -151 6 0 9 7 5 15 -3 8 -1 15 5 15 6 0
8 4 5 9 -3 5 1 12 10 15 24 9 31 7 14 -4 -12 -8 -10 -10 10 -11 l25 -1 -25 -8
c-20 -6 -21 -8 -5 -8 11 0 31 4 45 8 19 6 21 8 6 9 -11 1 -16 4 -13 7 3 4 23
-1 44 -11 33 -16 35 -19 18 -26 -16 -6 -17 -8 -3 -8 22 -1 34 19 18 29 -9 5
-9 9 -1 14 12 8 34 -2 27 -12 -2 -4 2 -16 10 -27 11 -15 14 -16 14 -3 0 11 7
14 25 10 14 -2 25 -8 25 -12 0 -4 11 -12 25 -18 43 -20 27 5 -17 27 -98 49
-212 117 -216 128 -7 24 30 26 75 4 31 -15 49 -19 57 -12 7 6 17 6 26 1 13 -9
13 -10 0 -11 -8 -1 -18 -1 -22 0 -22 3 0 -12 73 -51 45 -24 84 -51 87 -60 2
-10 11 -18 18 -18 8 0 14 -9 14 -21 0 -15 -5 -19 -15 -15 -8 3 -15 1 -15 -4 0
-6 7 -10 15 -10 10 0 15 -17 18 -67 2 -38 4 -6 5 70 1 95 -1 137 -9 137 -6 0
-9 -7 -5 -15 3 -8 0 -15 -5 -15 -6 0 -9 9 -6 20 5 20 -39 48 -268 170 -44 24
-86 47 -92 53 -10 7 -13 -22 -13 -142z"/>
<path d="M6746 601 c-4 -5 -27 -19 -54 -32 -26 -12 -76 -40 -111 -61 -34 -21
-67 -38 -71 -38 -5 0 -12 -4 -15 -10 -3 -6 1 -7 10 -4 8 4 21 2 28 -4 12 -10
26 -9 62 3 13 4 12 1 -5 -8 -14 -9 -28 -13 -32 -11 -5 3 -8 1 -8 -5 0 -6 -10
-15 -21 -22 -17 -9 -23 -8 -30 2 -7 11 -9 10 -9 -3 0 -9 -10 -24 -22 -32 -43
-31 -10 -15 97 45 101 56 110 59 122 43 7 -10 16 -14 20 -11 4 4 1 13 -5 19
-19 19 -14 30 8 18 11 -6 24 -9 28 -6 5 3 10 -68 11 -157 1 -89 4 -164 7 -166
2 -2 4 98 4 222 0 125 -2 227 -4 227 -3 0 -7 -4 -10 -9z"/>
<path d="M6810 418 c0 -100 2 -179 4 -177 4 4 14 135 15 207 1 41 31 46 32 5
0 -28 1 -28 11 -5 15 29 31 28 96 -9 30 -17 57 -28 60 -25 3 3 1 6 -4 6 -5 1
5 7 21 14 25 11 35 11 58 -1 15 -7 27 -18 27 -24 0 -6 5 -7 10 -4 6 3 10 2 10
-2 0 -5 9 -9 20 -9 11 0 20 1 20 2 0 6 -366 204 -376 204 -2 0 -4 -82 -4 -182z"/>
<path d="M2787 472 c-15 -15 -27 -32 -27 -38 1 -5 10 2 20 15 11 13 20 19 20
13 0 -6 -7 -18 -16 -26 -14 -15 -11 -20 8 -17 4 0 4 -7 1 -16 -5 -12 -3 -14 8
-8 8 5 3 -4 -10 -18 -14 -15 -27 -27 -29 -27 -3 0 3 9 13 20 11 12 13 20 6 20
-7 0 -10 4 -7 9 3 5 -1 14 -9 21 -12 10 -27 -1 -87 -60 -40 -39 -66 -70 -58
-68 8 2 28 18 44 36 31 34 52 42 43 17 -9 -22 14 -30 30 -10 11 16 13 16 13 3
0 -9 -11 -23 -25 -32 -15 -10 -25 -12 -25 -6 0 6 -5 8 -11 5 -6 -4 -8 -13 -5
-21 3 -8 0 -11 -8 -8 -15 6 -27 -18 -18 -33 4 -7 38 20 82 63 76 75 98 86 120
59 15 -19 30 -19 30 -2 0 14 23 15 52 2 10 -4 15 -12 11 -19 -3 -6 -2 -8 2 -3
11 9 46 -23 39 -35 -3 -5 4 -12 16 -15 12 -3 19 -11 16 -19 -3 -8 0 -11 10 -7
12 4 -14 36 -97 119 -63 63 -116 114 -119 114 -4 0 -18 -13 -33 -28z"/>
<path d="M195 408 c-27 -11 -63 -26 -80 -33 -16 -6 -46 -18 -65 -25 -47 -18
-58 -29 -23 -23 27 4 27 4 9 -11 -11 -9 -23 -16 -28 -16 -4 0 -8 -6 -8 -14 0
-9 7 -12 20 -9 11 3 20 9 20 14 0 4 11 9 25 11 24 3 37 23 15 23 -5 0 -10 4
-10 9 -1 11 30 18 30 8 0 -4 7 -16 15 -26 14 -19 16 -19 34 -2 19 17 20 17 41
-4 16 -16 29 -20 53 -16 25 5 27 4 12 -3 l-20 -10 20 0 c11 0 29 4 39 8 18 7
16 9 -15 21 -23 9 -29 14 -17 17 9 2 35 -8 57 -23 23 -15 55 -27 71 -28 19 -1
30 -6 31 -16 0 -8 2 -23 4 -32 2 -10 -2 -18 -8 -18 -5 0 -8 -2 -5 -5 7 -7 98
27 98 37 0 11 -3 10 -36 -7 -30 -15 -48 -11 -24 6 13 9 12 10 -2 5 -12 -3 -18
2 -20 17 -2 15 -10 22 -28 23 -13 1 -26 7 -28 13 -2 6 -12 11 -23 11 -10 0
-19 5 -19 10 0 6 -7 10 -15 10 -8 0 -15 4 -15 9 0 17 26 19 55 5 22 -11 24
-13 8 -10 -13 2 -23 1 -23 -4 0 -7 33 -19 52 -20 4 0 5 9 3 20 -2 12 0 18 6
15 5 -4 7 -10 5 -14 -3 -4 -1 -13 5 -21 7 -13 9 -13 9 0 0 13 1 13 10 0 6 -9
10 -10 10 -3 0 7 11 10 28 9 15 -2 37 -4 50 -5 12 -1 22 -7 22 -16 0 -8 5 -15
10 -15 6 0 10 -4 10 -10 0 -5 -6 -10 -14 -10 -8 0 -17 -4 -20 -9 -4 -5 16 -2
44 7 27 9 50 18 50 21 0 3 -35 19 -78 35 -42 15 -90 34 -107 42 -40 17 -185
74 -188 73 -1 0 -24 -10 -52 -21z"/>
</g>
</svg>
