<?xml version="1.0" encoding="utf-8"?>
<!-- Generator: Adobe Illustrator 17.0.0, SVG Export Plug-In . SVG Version: 6.00 Build 0)  -->
<!DOCTYPE svg PUBLIC "-//W3C//DTD SVG 1.1//EN" "http://www.w3.org/Graphics/SVG/1.1/DTD/svg11.dtd">
<svg version="1.1" id="Layer_1" xmlns="http://www.w3.org/2000/svg" xmlns:xlink="http://www.w3.org/1999/xlink" x="0px" y="0px"
	 width="253.354px" height="106px" viewBox="0 0 253.354 106" enable-background="new 0 0 253.354 106" xml:space="preserve">
<rect x="14.364" y="16.301" fill="#B8E0D5" width="102.185" height="76.639"/>
<rect x="21.729" y="38.625" fill="#056075" width="10.126" height="9.206"/>
<rect x="21.729" y="56.116" fill="#056075" width="10.126" height="9.206"/>
<rect x="21.729" y="75.449" fill="#056075" width="10.126" height="9.206"/>
<rect x="41.062" y="38.625" fill="#056075" width="10.126" height="9.206"/>
<rect x="41.062" y="56.116" fill="#056075" width="10.126" height="9.206"/>
<rect x="41.062" y="75.449" fill="#056075" width="10.126" height="9.206"/>
<rect x="60.394" y="38.625" fill="#056075" width="10.126" height="9.206"/>
<rect x="60.394" y="56.116" fill="#056075" width="10.126" height="9.206"/>
<rect x="60.394" y="75.449" fill="#056075" width="10.126" height="9.206"/>
<polygon fill="#61C2A7" points="116.549,16.301 64.996,16.301 64.996,38.625 70.52,38.625 70.52,47.831 64.996,47.831 
	64.996,56.116 70.52,56.116 70.52,65.322 64.996,65.322 64.996,75.449 70.52,75.449 70.52,84.654 64.996,84.654 64.996,92.94 
	116.549,92.94 "/>
<rect x="64.996" y="38.625" fill="#005F64" width="5.524" height="9.206"/>
<rect x="64.996" y="56.116" fill="#005F64" width="5.524" height="9.206"/>
<rect x="64.996" y="75.449" fill="#005F64" width="5.524" height="9.206"/>
<rect x="79.726" y="38.625" fill="#056075" width="10.126" height="9.206"/>
<rect x="79.726" y="56.116" fill="#056075" width="10.126" height="9.206"/>
<rect x="79.726" y="75.449" fill="#056075" width="10.126" height="9.206"/>
<rect x="98.137" y="38.625" fill="#056075" width="11.047" height="9.206"/>
<rect x="98.137" y="56.116" fill="#056075" width="11.047" height="9.206"/>
<rect x="98.137" y="75.449" fill="#056075" width="11.047" height="9.206"/>
<g>
	<path fill="#029DAF" d="M28.573,22.787h0.081c3.255,0,5.894-2.639,5.894-5.894c0-3.254-2.639-5.893-5.894-5.893h-0.081
		c-3.255,0-5.894,2.639-5.894,5.893C22.679,20.148,25.318,22.787,28.573,22.787"/>
	<path fill="#029DAF" d="M52.997,22.787h0.178c3.255,0,5.894-2.639,5.894-5.894c0-3.254-2.639-5.893-5.894-5.893h-0.178
		c-3.255,0-5.894,2.639-5.894,5.893C47.103,20.148,49.742,22.787,52.997,22.787 M77.518,22.787h0.178
		c3.255,0,5.894-2.639,5.894-5.894c0-3.254-2.639-5.893-5.894-5.893h-0.178c-3.255,0-5.894,2.639-5.894,5.893
		C71.624,20.148,74.263,22.787,77.518,22.787"/>
	<path fill="#029DAF" d="M102.039,22.787h0.081c3.255,0,5.894-2.639,5.894-5.894c0-3.254-2.639-5.893-5.894-5.893h-0.081
		c-3.255,0-5.894,2.639-5.894,5.893C96.145,20.148,98.784,22.787,102.039,22.787"/>
</g>
<rect x="21.728" y="28.499" fill="#55C0A7" width="34.062" height="5.524"/>
</svg>
