<?xml version="1.0" encoding="utf-8"?>
<!-- Generator: Adobe Illustrator 17.0.0, SVG Export Plug-In . SVG Version: 6.00 Build 0)  -->
<!DOCTYPE svg PUBLIC "-//W3C//DTD SVG 1.1//EN" "http://www.w3.org/Graphics/SVG/1.1/DTD/svg11.dtd">
<svg version="1.1" id="Layer_1" xmlns="http://www.w3.org/2000/svg" xmlns:xlink="http://www.w3.org/1999/xlink" x="0px" y="0px"
	 width="160.667px" height="104.362px" viewBox="0 0 160.667 104.362" enable-background="new 0 0 160.667 104.362"
	 xml:space="preserve">
<g>
	<defs>
		<rect id="SVGID_15_" x="0.333" y="-0.362" width="160.667" height="104.362"/>
	</defs>
	<clipPath id="SVGID_2_">
		<use xlink:href="#SVGID_15_"  overflow="visible"/>
	</clipPath>
	<g clip-path="url(#SVGID_2_)">
		<defs>
			<rect id="SVGID_17_" x="0.333" y="-0.362" width="160.667" height="104.362"/>
		</defs>
		<clipPath id="SVGID_4_">
			<use xlink:href="#SVGID_17_"  overflow="visible"/>
		</clipPath>
		<g opacity="0.3" clip-path="url(#SVGID_4_)">
			<g>
				<defs>
					<rect id="SVGID_19_" x="-8.667" y="-7.362" width="178.667" height="112.362"/>
				</defs>
				<clipPath id="SVGID_6_">
					<use xlink:href="#SVGID_19_"  overflow="visible"/>
				</clipPath>
			</g>
		</g>
		<g clip-path="url(#SVGID_4_)">
			<g>
				<defs>
					<rect id="SVGID_21_" x="21.555" y="-7.828" width="114.708" height="105.851"/>
				</defs>
				<clipPath id="SVGID_8_">
					<use xlink:href="#SVGID_21_"  overflow="visible"/>
				</clipPath>
				<path clip-path="url(#SVGID_8_)" fill="#B8E0D5" d="M119.263,56.669c0,22.287-18.067,40.354-40.354,40.354
					S38.555,78.956,38.555,56.669s18.067-40.354,40.354-40.354S119.263,34.382,119.263,56.669"/>
				<g clip-path="url(#SVGID_8_)">
					<defs>
						<path id="SVGID_23_" d="M73.753,87.986c0.006,2.475,1.894,4.506,4.307,4.74v-9.499C75.638,83.462,73.749,85.504,73.753,87.986
							 M58.02,81.191c-1.324,2.278-0.551,5.199,1.726,6.523c0.756,0.44,1.581,0.649,2.394,0.649c1.645,0,3.244-0.851,4.131-2.375
							c1.324-2.278,0.551-5.199-1.727-6.524c-0.755-0.438-1.58-0.647-2.395-0.647C60.505,78.817,58.906,79.668,58.02,81.191
							 M47.839,67.404c-2.29,1.305-3.087,4.219-1.781,6.509c0.88,1.543,2.491,2.408,4.149,2.408c0.801,0,1.613-0.202,2.359-0.628
							c2.29-1.305,3.087-4.219,1.781-6.509c-0.88-1.543-2.491-2.408-4.149-2.408C49.397,66.776,48.585,66.979,47.839,67.404
							 M45.952,50.362c-2.614,0-4.745,2.106-4.771,4.726c-0.026,2.635,2.09,4.791,4.725,4.817c0.017,0,0.032,0,0.048,0
							c2.614,0,4.745-2.106,4.77-4.725c0.026-2.636-2.09-4.792-4.725-4.818C45.984,50.362,45.968,50.362,45.952,50.362 M46.44,36.36
							c-1.353,2.262-0.615,5.192,1.648,6.544c0.767,0.459,1.611,0.676,2.443,0.676c1.624,0,3.207-0.829,4.101-2.324
							c1.352-2.262,0.614-5.193-1.648-6.544c-0.767-0.458-1.611-0.676-2.444-0.676C48.916,34.036,47.334,34.865,46.44,36.36
							 M60.404,22.836c-2.305,1.279-3.137,4.182-1.859,6.487c0.872,1.572,2.499,2.459,4.178,2.459c0.783,0,1.577-0.193,2.309-0.599
							c2.305-1.278,3.138-4.183,1.859-6.487c-0.871-1.572-2.5-2.459-4.177-2.459C61.931,22.237,61.137,22.429,60.404,22.836
							 M74.412,22.854c-0.047,2.188,1.387,4.063,3.382,4.669l0.266-2.486v-6.719C76.005,18.814,74.46,20.642,74.412,22.854"/>
					</defs>
					<clipPath id="SVGID_10_">
						<use xlink:href="#SVGID_23_"  overflow="visible"/>
					</clipPath>
					
						<linearGradient id="SVGID_11_" gradientUnits="userSpaceOnUse" x1="871.236" y1="493.7897" x2="872.236" y2="493.7897" gradientTransform="matrix(74.5633 -1.0412 -1.0412 -74.5633 -64406.9648 37781.4766)">
						<stop  offset="0" style="stop-color:#05797B"/>
						<stop  offset="1" style="stop-color:#29A9E1"/>
					</linearGradient>
					<polygon clip-path="url(#SVGID_10_)" fill="url(#SVGID_11_)" points="40.116,18.333 78.053,17.803 79.099,92.712 
						41.162,93.241 					"/>
				</g>
				<path clip-path="url(#SVGID_8_)" fill="#009684" d="M74.672,56.794l4.29-40.22l4.29,40.22c0.253,2.37-1.463,4.495-3.832,4.748
					c-2.37,0.253-4.496-1.463-4.748-3.833C74.64,57.407,74.643,57.085,74.672,56.794"/>
				<path clip-path="url(#SVGID_8_)" fill="#057A7D" d="M81.19,61.286l-15.069,7.991l7.991-15.069
					c1.354-2.555,4.523-3.528,7.078-2.173c2.555,1.354,3.527,4.523,2.173,7.078C82.852,60.076,82.086,60.812,81.19,61.286"/>
				<rect x="70.495" y="5.171" clip-path="url(#SVGID_8_)" fill="#00AB8A" width="15.129" height="6.052"/>
				<path clip-path="url(#SVGID_8_)" fill="#8ACFBD" d="M78.059,16.315v0.008c0.143-0.003,0.285-0.005,0.429-0.006
					C78.345,16.315,78.202,16.315,78.059,16.315 M78.059,97.014v0.009c0.143,0,0.286-0.001,0.429-0.002
					C78.344,97.019,78.202,97.017,78.059,97.014"/>
				<path clip-path="url(#SVGID_8_)" fill="#61C2A7" d="M78.488,16.317c-0.144,0.001-0.285,0.003-0.429,0.006v1.995
					c0.237-0.057,0.481-0.097,0.729-0.117l0.174-1.627l0.172,1.611c0.016,0,0.031,0,0.047,0c0.035,0,0.069,0,0.105,0.001
					c2.634,0.057,4.724,2.238,4.668,4.873c-0.049,2.271-1.677,4.137-3.813,4.573l2.758,25.849c1.202,1.575,1.453,3.768,0.464,5.633
					c-0.51,0.962-1.277,1.699-2.173,2.172l-3.131,1.661v20.28c0.15-0.014,0.303-0.022,0.456-0.022h0.011
					c2.63,0,4.766,2.129,4.771,4.762c0.005,2.635-2.127,4.776-4.762,4.781h-0.01c-0.157,0-0.312-0.007-0.466-0.022v4.288
					c0.144,0.003,0.285,0.005,0.429,0.007c22.488-0.225,39.925-18.205,39.925-40.352S100.976,16.542,78.488,16.317 M95.448,32.508
					c-0.851,0-1.713-0.228-2.492-0.706c-2.246-1.379-2.949-4.318-1.57-6.563c0.901-1.468,2.467-2.276,4.071-2.276
					c0.851,0,1.714,0.228,2.492,0.706h0.001c2.245,1.379,2.948,4.317,1.569,6.563C98.618,31.699,97.052,32.508,95.448,32.508
					 M107.109,44.83c-1.698,0-3.343-0.909-4.205-2.509h0.001c-1.251-2.319-0.384-5.214,1.936-6.464
					c0.72-0.388,1.495-0.572,2.26-0.572c1.698,0,3.342,0.909,4.204,2.509c1.25,2.319,0.384,5.214-1.936,6.464
					C108.649,44.646,107.873,44.83,107.109,44.83 M110.974,59.785c-2.604,0-4.734-2.094-4.77-4.706
					c-0.036-2.636,2.072-4.801,4.706-4.837c0.023,0,0.044,0,0.067,0c2.605,0,4.734,2.094,4.77,4.707
					c0.036,2.635-2.071,4.8-4.706,4.836C111.019,59.785,110.997,59.785,110.974,59.785 M106.781,76.217
					c-0.795,0-1.602-0.199-2.344-0.619c-2.294-1.297-3.102-4.209-1.805-6.503c0.878-1.551,2.494-2.423,4.158-2.423
					c0.796,0,1.602,0.199,2.345,0.619c2.294,1.297,3.101,4.209,1.804,6.503C110.061,75.346,108.445,76.217,106.781,76.217
					 M92.474,79.414c0.759-0.445,1.589-0.656,2.409-0.656c1.638,0,3.233,0.844,4.121,2.358c1.333,2.274,0.571,5.197-1.702,6.531
					h-0.001c-0.758,0.444-1.589,0.656-2.409,0.656c-1.637,0-3.232-0.844-4.121-2.359C89.438,83.67,90.201,80.747,92.474,79.414z"/>
				<g clip-path="url(#SVGID_8_)">
					<defs>
						<path id="SVGID_26_" d="M78.515,83.205c-0.154,0-0.306,0.008-0.455,0.022v9.499c0.153,0.014,0.308,0.022,0.465,0.022h0.01
							c2.635-0.005,4.767-2.146,4.762-4.781c-0.006-2.633-2.141-4.762-4.771-4.762H78.515z M92.474,79.414
							c-2.273,1.333-3.036,4.257-1.703,6.53c0.889,1.515,2.483,2.359,4.121,2.359c0.82,0,1.651-0.211,2.41-0.657
							c2.273-1.333,3.035-4.256,1.702-6.529c-0.888-1.515-2.483-2.359-4.121-2.359C94.063,78.758,93.233,78.969,92.474,79.414
							 M102.632,69.095c-1.297,2.294-0.489,5.206,1.805,6.503c0.742,0.419,1.549,0.619,2.344,0.619c1.665,0,3.28-0.871,4.158-2.423
							c1.297-2.295,0.49-5.205-1.804-6.503c-0.743-0.42-1.549-0.619-2.346-0.619C105.125,66.672,103.51,67.544,102.632,69.095
							 M110.911,50.242c-2.636,0.036-4.743,2.201-4.706,4.837c0.035,2.612,2.165,4.707,4.77,4.707c0.022,0,0.044-0.001,0.065-0.001
							c2.636-0.036,4.743-2.202,4.707-4.837c-0.036-2.613-2.165-4.707-4.771-4.707C110.955,50.241,110.932,50.242,110.911,50.242
							 M104.841,35.857c-2.32,1.25-3.187,4.145-1.937,6.464c0.862,1.6,2.507,2.509,4.205,2.509c0.764,0,1.54-0.184,2.26-0.572
							c2.32-1.25,3.187-4.145,1.937-6.465c-0.863-1.599-2.507-2.508-4.205-2.508C106.336,35.285,105.561,35.469,104.841,35.857
							 M91.386,25.238c-1.379,2.247-0.676,5.185,1.57,6.563c0.779,0.479,1.641,0.707,2.493,0.707c1.603,0,3.169-0.809,4.07-2.276
							c1.379-2.246,0.676-5.184-1.569-6.563h-0.001c-0.779-0.478-1.641-0.706-2.492-0.706
							C93.853,22.963,92.287,23.771,91.386,25.238 M78.06,18.318v6.719l0.729-6.836C78.539,18.221,78.296,18.261,78.06,18.318
							 M79.134,18.185l1.007,9.447c2.136-0.435,3.764-2.302,3.813-4.573c0.057-2.635-2.033-4.816-4.669-4.873
							c-0.035,0-0.07-0.001-0.104-0.001C79.165,18.185,79.15,18.185,79.134,18.185"/>
					</defs>
					<clipPath id="SVGID_13_">
						<use xlink:href="#SVGID_26_"  overflow="visible"/>
					</clipPath>
					
						<linearGradient id="SVGID_14_" gradientUnits="userSpaceOnUse" x1="871.236" y1="493.7842" x2="872.236" y2="493.7842" gradientTransform="matrix(74.5633 -1.0412 -1.0412 -74.5633 -64406.9727 37781.5391)">
						<stop  offset="0" style="stop-color:#00776A"/>
						<stop  offset="1" style="stop-color:#009FAE"/>
					</linearGradient>
					<polygon clip-path="url(#SVGID_13_)" fill="url(#SVGID_14_)" points="77.019,18.2 115.776,17.658 116.824,92.733 
						78.067,93.275 					"/>
				</g>
				<path clip-path="url(#SVGID_8_)" fill="#009173" d="M78.962,16.574l-0.174,1.627l-0.729,6.836v26.432
					c0.226-0.03,0.454-0.045,0.683-0.045c0.827,0,1.667,0.197,2.448,0.611c0.69,0.366,1.264,0.864,1.709,1.447l-2.757-25.849
					l-1.008-9.447L78.962,16.574z"/>
				<path clip-path="url(#SVGID_8_)" fill="#00776A" d="M78.742,51.424c-0.229,0-0.457,0.015-0.683,0.045v11.478l3.131-1.661
					c0.896-0.473,1.663-1.21,2.173-2.173c0.989-1.865,0.738-4.057-0.464-5.632c-0.445-0.582-1.019-1.08-1.709-1.446
					C80.409,51.621,79.569,51.424,78.742,51.424"/>
				<rect x="78.059" y="5.172" clip-path="url(#SVGID_8_)" fill="#00A577" width="7.565" height="6.052"/>
			</g>
		</g>
	</g>
</g>
</svg>
