<svg xmlns="http://www.w3.org/2000/svg" xmlns:xlink="http://www.w3.org/1999/xlink" viewBox="0 0 135.2 100.7"><defs><style>.a{fill:none;}.b{clip-path:url(#a);}.c{fill:#c1e7f7;}.d{fill:#c1e7f4;}.e{fill:#8fd6ef;}.f{fill:#0688bf;}.g{fill:#81d3f3;}.h{fill:#26a9e0;}.i{fill:#00c0ed;}.j{fill:#00a2dd;}</style><clipPath id="a" transform="translate(-12.8 -16.8)"><rect class="a" x="0.2" y="-382.7" width="161.3" height="518.55"/></clipPath></defs><title>WEEKLY-11</title><g class="b"><path class="c" d="M13,65.8c-0.1,1.1-.2,2.2-0.2,3.3,0,18.2,8.2,47.7,33,47.7s33-29.4,33-47.7a33.4,33.4,0,0,0-.3-4.1c-21.9.3-43.7,0.8-65.6,0.8" transform="translate(-12.8 -16.8)"/></g><g class="b"><path class="d" d="M68.2,65.2l-22.4.3,22.4-.3h0Z" transform="translate(-12.8 -16.8)"/></g><g class="b"><path class="e" d="M68.2,65.2l-22.4.3v51.3c22.9,0,31.6-25.1,32.8-43.3a26.7,26.7,0,0,1-10.5-8.4" transform="translate(-12.8 -16.8)"/></g><g class="b"><path class="f" d="M35.8,79.7a4.3,4.3,0,1,1-4.3-4.3,4.3,4.3,0,0,1,4.3,4.3" transform="translate(-12.8 -16.8)"/></g><g class="b"><path class="c" d="M50.1,89.2a4.3,4.3,0,0,1-8.7,0c0-2.4,1.9-16.2,4.3-16.2,0,0,4.3,13.8,4.3,16.2" transform="translate(-12.8 -16.8)"/></g><g class="b"><path class="f" d="M64.5,79.7a4.3,4.3,0,1,1-4.3-4.3,4.3,4.3,0,0,1,4.3,4.3" transform="translate(-12.8 -16.8)"/></g><g class="b"><path class="f" d="M88.7,22.8l-3.6.3a26.6,26.6,0,1,0,25.5,10.1L88.5,50V22.8Z" transform="translate(-12.8 -16.8)"/></g><g class="b"><path class="c" d="M88.7,22.8V50l22-16.7A26.5,26.5,0,0,0,88.7,22.8" transform="translate(-12.8 -16.8)"/></g><g class="b"><path class="g" d="M91.5,17.5V44.7l22-16.7A26.5,26.5,0,0,0,91.5,17.5" transform="translate(-12.8 -16.8)"/></g><g class="b"><path class="c" d="M141,36.2a6.9,6.9,0,1,0,4.9,2,6.9,6.9,0,0,0-4.9-2m0,1.8a5.1,5.1,0,1,1-3.6,1.5A5.1,5.1,0,0,1,141,38" transform="translate(-12.8 -16.8)"/></g><g class="b"><path class="g" d="M113.4,84a16.8,16.8,0,1,0,16.8,16.8A16.8,16.8,0,0,0,113.4,84m0,6.1a10.7,10.7,0,1,1-10.7,10.7,10.7,10.7,0,0,1,10.7-10.7" transform="translate(-12.8 -16.8)"/></g><g class="b"><path class="h" d="M28.8,49.6a6.9,6.9,0,1,0,4.9,2,6.9,6.9,0,0,0-4.9-2m0,1.8a5.1,5.1,0,1,1-3.6,1.5,5.1,5.1,0,0,1,3.6-1.5" transform="translate(-12.8 -16.8)"/></g><g class="b"><path class="g" d="M62.8,16.8A12.3,12.3,0,1,0,75.1,29.1,12.3,12.3,0,0,0,62.8,16.8m0,6.9a5.4,5.4,0,1,1-5.4,5.4,5.4,5.4,0,0,1,5.4-5.4" transform="translate(-12.8 -16.8)"/></g><g class="b"><path class="g" d="M62.8,23.8h0a5.4,5.4,0,0,1,5.4,5.1,5.4,5.4,0,0,0-5.4-5.1" transform="translate(-12.8 -16.8)"/></g><g class="b"><path class="i" d="M62.8,16.8v6.9a5.4,5.4,0,0,1,5.4,5.1v0.2a5.4,5.4,0,0,1-5.4,5.4v6.9A12.3,12.3,0,0,0,75.1,29.1c0-.2,0-0.4,0-0.6A12.3,12.3,0,0,0,62.8,16.8" transform="translate(-12.8 -16.8)"/></g><g class="b"><path class="h" d="M113.5,90.1h0m-10.7,10.7h0a10.7,10.7,0,0,0,10.7,10.7,10.7,10.7,0,0,1-10.7-10.7m11.6,10.7h0Z" transform="translate(-12.8 -16.8)"/></g><g class="b"><path class="j" d="M113.4,84a16.8,16.8,0,0,0,0,33.6h0.9v-6.1h-0.9a10.7,10.7,0,0,1,0-21.4h0.9V84h-0.9" transform="translate(-12.8 -16.8)"/></g></svg>